<svg height="480pt" viewBox="-48 0 480 480" width="480pt" xmlns="http://www.w3.org/2000/svg"><path d="m372.953125 69.960938 11.046875 10.039062-6.726562 55.535156c-16.25 134.03125-82.402344 257.023438-185.273438 344.464844-102.871094-87.441406-169.023438-210.433594-185.273438-344.464844l-6.726562-55.535156 11.046875-10.039062c49.511719-45.015626 114.03125-69.960938 180.953125-69.960938s131.441406 24.945312 180.953125 69.960938zm0 0" fill="#f0d365"/><path d="m264 351.105469c36.59375-53.554688 60.703125-115.195313 69.695312-180.410157l10.304688-74.695312c-23.480469-20.542969-50.753906-35.824219-80-45.191406zm0 0" fill="#976947"/><path d="m189.039062 40c-23.625 0-46.894531 3.710938-69.039062 10.808594v300.289062c20.304688 29.710938 44.390625 56.972656 72 80.894532v-391.992188zm0 0" fill="#976947"/><path d="m120 351.105469v-300.296875c-29.246094 9.367187-56.519531 24.648437-80 45.191406l10.304688 74.695312c8.992187 65.214844 33.101562 126.847657 69.695312 180.410157zm0 0" fill="#c18e59"/><path d="m264 50.808594c-22.144531-7.097656-45.414062-10.808594-69.039062-10.808594h-2.960938v392c27.609375-23.921875 51.695312-51.183594 72-80.894531zm0 0" fill="#c18e59"/><path d="m224 128c0 17.671875-14.328125 32-32 32s-32-14.328125-32-32 14.328125-32 32-32 32 14.328125 32 32zm0 0" fill="#8bd2f5"/></svg>